<?xml version="1.0" encoding="utf-8"?>
<!-- Generator: Adobe Illustrator 25.2.1, SVG Export Plug-In . SVG Version: 6.00 Build 0)  -->
<svg version="1.1" id="Layer_1" focusable="false" xmlns="http://www.w3.org/2000/svg" xmlns:xlink="http://www.w3.org/1999/xlink"
	 x="0px" y="0px" viewBox="0 0 512 512" style="enable-background:new 0 0 512 512;" xml:space="preserve">
<style type="text/css">
	.st0{fill:#FFFFFF;}
</style>
<path class="st0" d="M154.4,362.6h151.5c41.8,0,75.8-33.9,75.8-75.8H407c55.7,0,101-45.3,101-101s-45.3-101-101-101H97.6
	c-10.5,0-18.9,8.4-18.9,18.9v183.1C78.6,328.6,112.6,362.6,154.4,362.6z M407,135.3c27.9,0,50.5,22.7,50.5,50.5
	s-22.7,50.5-50.5,50.5h-25.3v-101H407z M444.6,438.4H41c-37.6,0-48.1-50.5-28.4-50.5H473C492.7,387.8,482.3,438.4,444.6,438.4
	L444.6,438.4z"/>
</svg>
