<?xml version="1.0" encoding="utf-8"?>
<!-- Generator: Adobe Illustrator 25.2.1, SVG Export Plug-In . SVG Version: 6.00 Build 0)  -->
<svg version="1.1" id="Layer_1" focusable="false" xmlns="http://www.w3.org/2000/svg" xmlns:xlink="http://www.w3.org/1999/xlink"
	 x="0px" y="0px" viewBox="0 0 512 512" style="enable-background:new 0 0 512 512;" xml:space="preserve">
<style type="text/css">
	.st0{fill:#FFFFFF;}
</style>
<path class="st0" d="M308.7,238.2c1.5,7.9,2.5,15.7,2.5,25.9c0,88.9-59.6,151.9-149.3,151.9C76,416,6.4,346.4,6.4,260.5
	S76,105,161.9,105c42,0,77,15.3,104.2,40.7l-42.2,40.5c-11.4-11-31.6-24-62-24c-53,0-96.3,43.9-96.3,98.2s43.2,98.2,96.3,98.2
	c61.6,0,84.6-44.3,88.3-67.1h-88.3v-53.5H308.7L308.7,238.2z M458.9,243.4v-45.1h-45.4v45.1h-45.1v45.4h45.1v45.1h45.4v-45.1H504
	v-45.4H458.9L458.9,243.4z"/>
</svg>
